<svg xmlns="http://www.w3.org/2000/svg" xmlns:xlink="http://www.w3.org/1999/xlink" width="500" zoomAndPan="magnify" viewBox="0 0 375 187.499995" height="250" preserveAspectRatio="xMidYMid meet" version="1.0"><defs><g/><clipPath id="1279b18e05"><path d="M 1.019531 2.355469 L 94 2.355469 L 94 114 L 1.019531 114 Z M 1.019531 2.355469 " clip-rule="nonzero"/></clipPath><clipPath id="5def5ab6e4"><path d="M 37 132 L 57 132 L 57 144.390625 L 37 144.390625 Z M 37 132 " clip-rule="nonzero"/></clipPath><clipPath id="51fd46cc97"><path d="M 107.535156 60.710938 L 165.882812 60.710938 L 165.882812 101.792969 L 107.535156 101.792969 Z M 107.535156 60.710938 " clip-rule="nonzero"/></clipPath><clipPath id="42502aca53"><path d="M 0.535156 0.710938 L 58.882812 0.710938 L 58.882812 41.792969 L 0.535156 41.792969 Z M 0.535156 0.710938 " clip-rule="nonzero"/></clipPath><clipPath id="824407e052"><rect x="0" width="59" y="0" height="42"/></clipPath><clipPath id="502f70d9b1"><path d="M 107 0.105469 L 354 0.105469 L 354 71 L 107 71 Z M 107 0.105469 " clip-rule="nonzero"/></clipPath><clipPath id="f0d595265b"><path d="M 0.433594 18 L 33 18 L 33 50 L 0.433594 50 Z M 0.433594 18 " clip-rule="nonzero"/></clipPath><clipPath id="3b126c0a49"><rect x="0" width="247" y="0" height="71"/></clipPath><clipPath id="62894d1c3d"><path d="M 107 110 L 360.917969 110 L 360.917969 141 L 107 141 Z M 107 110 " clip-rule="nonzero"/></clipPath><clipPath id="bf32a986d7"><path d="M 0.433594 7 L 15 7 L 15 24 L 0.433594 24 Z M 0.433594 7 " clip-rule="nonzero"/></clipPath><clipPath id="fde503cd34"><rect x="0" width="254" y="0" height="31"/></clipPath><clipPath id="56478de9ad"><rect x="0" width="361" y="0" height="146"/></clipPath></defs><g transform="matrix(1, 0, 0, 1, 7, 20)"><g clip-path="url(#56478de9ad)"><g clip-path="url(#1279b18e05)"><path fill="#278fcb" d="M 6.003906 69.574219 C 5.550781 68.664062 5.125 67.75 4.734375 66.804688 C 4.003906 65.09375 3.367188 63.351562 2.84375 61.558594 C 2.277344 59.570312 1.835938 57.535156 1.527344 55.484375 C 1.183594 53.21875 1.019531 50.921875 1.019531 48.625 C 1.019531 23.070312 21.753906 2.332031 47.3125 2.332031 C 72.886719 2.332031 93.625 23.070312 93.625 48.625 C 93.625 52.371094 93.167969 56.101562 92.269531 59.734375 C 91.796875 61.691406 91.179688 63.628906 90.445312 65.5 C 90.265625 65.941406 90.085938 66.382812 89.910156 66.804688 C 88.980469 69.003906 87.875 71.121094 86.699219 73.171875 C 85.707031 74.902344 84.664062 76.59375 83.570312 78.253906 C 82.136719 80.4375 80.65625 82.585938 79.15625 84.722656 C 76.09375 89.136719 72.835938 93.519531 70.179688 98.191406 L 67.117188 103.585938 L 56.691406 103.585938 L 56.691406 108.160156 L 65.75 108.160156 L 65.75 113.457031 L 51.382812 113.457031 L 51.382812 98.289062 L 64.023438 98.289062 L 64.527344 97.410156 L 65.570312 95.566406 C 68.273438 90.792969 71.679688 86.203125 74.804688 81.691406 C 76.238281 79.65625 77.703125 77.539062 79.121094 75.355469 C 80.160156 73.773438 81.15625 72.160156 82.101562 70.53125 C 83.191406 68.628906 84.183594 66.671875 85.03125 64.714844 C 85.195312 64.339844 85.34375 63.949219 85.503906 63.574219 C 86.15625 61.898438 86.695312 60.1875 87.117188 58.457031 C 87.914062 55.25 88.304688 51.960938 88.304688 48.621094 C 88.304688 25.976562 69.949219 7.621094 47.304688 7.621094 C 24.664062 7.621094 6.316406 25.988281 6.316406 48.625 C 6.316406 50.679688 6.476562 52.699219 6.769531 54.699219 C 7.046875 56.527344 7.441406 58.316406 7.945312 60.074219 C 8.398438 61.65625 8.953125 63.203125 9.605469 64.71875 C 9.964844 65.566406 10.335938 66.394531 10.761719 67.226562 C 11.542969 68.804688 12.425781 70.371094 13.351562 71.917969 C 14.492188 73.820312 15.714844 75.679688 16.9375 77.503906 C 17.898438 78.941406 18.875 80.339844 19.820312 81.691406 C 19.902344 81.808594 19.980469 81.921875 20.066406 82.035156 C 23.875 87.492188 27.3125 92.492188 30.601562 98.292969 L 43.242188 98.292969 L 43.242188 113.460938 L 28.890625 113.460938 L 28.890625 108.164062 L 37.949219 108.164062 L 37.949219 103.585938 L 27.523438 103.585938 L 25.992188 100.917969 C 22.878906 95.410156 19.332031 90.246094 15.710938 85.066406 C 15.628906 84.953125 15.550781 84.839844 15.46875 84.726562 C 14.492188 83.324219 13.511719 81.90625 12.550781 80.488281 C 11.25 78.566406 9.996094 76.628906 8.804688 74.640625 C 7.8125 72.996094 6.867188 71.304688 6.003906 69.574219 Z M 6.003906 69.574219 " fill-opacity="1" fill-rule="evenodd"/></g><path fill="#278fcb" d="M 34.183594 109.484375 L 34.183594 118.183594 L 60.441406 118.183594 L 60.441406 109.484375 L 65.753906 109.484375 L 65.753906 123.476562 L 28.890625 123.476562 L 28.890625 109.484375 Z M 34.183594 109.484375 " fill-opacity="1" fill-rule="evenodd"/><path fill="#278fcb" d="M 38.730469 119.761719 L 38.730469 128.445312 L 55.898438 128.445312 L 55.898438 119.761719 L 61.207031 119.761719 L 61.207031 133.753906 L 33.4375 133.753906 L 33.4375 119.761719 Z M 38.730469 119.761719 " fill-opacity="1" fill-rule="evenodd"/><g clip-path="url(#5def5ab6e4)"><path fill="#278fcb" d="M 56.777344 132.613281 L 56.777344 135.207031 C 56.777344 140.402344 52.527344 144.671875 47.3125 144.671875 C 42.117188 144.671875 37.867188 140.402344 37.867188 135.207031 L 37.867188 132.613281 L 43.160156 132.613281 L 43.160156 135.207031 C 43.160156 137.484375 45.050781 139.359375 47.3125 139.359375 C 49.59375 139.359375 51.464844 137.484375 51.464844 135.207031 L 51.464844 132.613281 Z M 56.777344 132.613281 " fill-opacity="1" fill-rule="evenodd"/></g><path fill="#38b6ff" d="M 40.667969 24.4375 C 42.296875 24.4375 43.601562 25.742188 43.601562 27.351562 C 43.601562 27.777344 43.519531 28.167969 43.355469 28.527344 L 47.3125 32.941406 L 47.3125 19.679688 L 43.519531 15.460938 L 33.875 15.460938 L 26.726562 23.425781 L 26.726562 25.203125 L 30.195312 29.0625 L 32.640625 31.785156 L 32.640625 38.433594 C 33.632812 38.90625 34.332031 39.914062 34.332031 41.101562 C 34.332031 42.714844 33.027344 44.035156 31.417969 44.035156 C 29.789062 44.035156 28.484375 42.714844 28.484375 41.101562 C 28.484375 39.914062 29.1875 38.90625 30.195312 38.433594 L 30.195312 32.714844 L 25.925781 27.972656 L 24.296875 29.796875 L 18.5 36.246094 L 18.5 41.980469 L 23.140625 47.160156 L 31.464844 47.160156 C 31.9375 46.148438 32.949219 45.449219 34.136719 45.449219 C 35.746094 45.449219 37.066406 46.765625 37.066406 48.382812 C 37.066406 49.992188 35.75 51.3125 34.136719 51.3125 C 32.945312 51.3125 31.9375 50.613281 31.464844 49.601562 L 22.050781 49.601562 L 19.867188 47.160156 L 17.699219 44.730469 L 16.054688 46.574219 L 12.78125 50.222656 L 12.78125 58.742188 L 17.945312 64.492188 L 18.742188 65.390625 L 23.433594 60.160156 C 23.289062 59.800781 23.1875 59.414062 23.1875 58.988281 C 23.1875 57.375 24.503906 56.074219 26.121094 56.074219 C 27.730469 56.074219 29.050781 57.375 29.050781 58.988281 C 29.050781 60.617188 27.734375 61.921875 26.121094 61.921875 C 25.808594 61.921875 25.515625 61.871094 25.257812 61.789062 L 20.386719 67.210938 L 20.386719 73.417969 L 26.980469 80.765625 L 27.78125 81.660156 L 33.332031 75.472656 L 33.332031 60.09375 L 35.777344 57.375 L 36.722656 56.316406 C 36.558594 55.957031 36.476562 55.566406 36.476562 55.160156 C 36.476562 53.53125 37.78125 52.226562 39.40625 52.226562 C 41.019531 52.226562 42.339844 53.53125 42.339844 55.160156 C 42.339844 56.769531 41.023438 58.074219 39.40625 58.074219 C 39.097656 58.074219 38.804688 58.042969 38.527344 57.941406 L 35.777344 61.019531 L 35.777344 76.414062 L 33.332031 79.117188 L 29.425781 83.484375 L 29.425781 87.132812 L 29.539062 87.265625 L 33.464844 91.644531 L 43.464844 91.644531 L 47.308594 87.34375 L 47.308594 74.101562 L 42.664062 68.921875 C 42.390625 69.015625 42.09375 69.050781 41.785156 69.050781 C 40.175781 69.050781 38.851562 67.746094 38.851562 66.136719 C 38.851562 64.507812 40.171875 63.203125 41.785156 63.203125 C 43.414062 63.203125 44.71875 64.507812 44.71875 66.136719 C 44.71875 66.542969 44.632812 66.933594 44.472656 67.292969 L 47.308594 70.453125 L 47.308594 36.589844 L 41.539062 30.15625 C 41.265625 30.238281 40.972656 30.289062 40.660156 30.289062 C 39.050781 30.289062 37.730469 28.984375 37.730469 27.355469 C 37.738281 25.742188 39.054688 24.4375 40.667969 24.4375 Z M 40.667969 24.4375 " fill-opacity="1" fill-rule="evenodd"/><path fill="#278fcb" d="M 53.960938 82.671875 C 52.347656 82.671875 51.046875 81.367188 51.046875 79.742188 C 51.046875 79.332031 51.128906 78.945312 51.273438 78.585938 L 47.316406 74.167969 L 47.316406 87.429688 L 51.109375 91.648438 L 60.753906 91.648438 L 67.90625 83.683594 L 67.90625 81.90625 L 64.453125 78.046875 L 62.011719 75.324219 L 62.011719 68.660156 C 61 68.207031 60.300781 67.195312 60.300781 66.003906 C 60.300781 64.394531 61.617188 63.074219 63.230469 63.074219 C 64.84375 63.074219 66.164062 64.390625 66.164062 66.003906 C 66.164062 67.195312 65.464844 68.203125 64.453125 68.660156 L 64.453125 74.394531 L 68.703125 79.132812 L 70.347656 77.308594 L 76.148438 70.859375 L 76.148438 65.125 L 71.488281 59.945312 L 63.164062 59.945312 C 62.707031 60.957031 61.679688 61.65625 60.507812 61.65625 C 58.878906 61.65625 57.574219 60.335938 57.574219 58.722656 C 57.574219 57.109375 58.878906 55.792969 60.507812 55.792969 C 61.679688 55.792969 62.707031 56.492188 63.164062 57.503906 L 72.578125 57.503906 L 74.777344 59.945312 L 76.941406 62.371094 L 78.585938 60.53125 L 81.859375 56.882812 L 81.859375 48.363281 L 76.695312 42.609375 L 75.898438 41.714844 L 71.207031 46.945312 C 71.355469 47.300781 71.4375 47.691406 71.4375 48.117188 C 71.4375 49.726562 70.132812 51.03125 68.519531 51.03125 C 66.894531 51.03125 65.589844 49.726562 65.589844 48.117188 C 65.589844 46.488281 66.894531 45.183594 68.519531 45.183594 C 68.816406 45.183594 69.109375 45.234375 69.382812 45.316406 L 74.253906 39.890625 L 74.253906 33.6875 L 67.660156 26.339844 L 66.863281 25.441406 L 61.308594 31.632812 L 61.308594 47.007812 L 58.867188 49.730469 L 57.921875 50.789062 C 58.066406 51.148438 58.164062 51.539062 58.164062 51.945312 C 58.164062 53.574219 56.847656 54.878906 55.234375 54.878906 C 53.621094 54.878906 52.300781 53.574219 52.300781 51.945312 C 52.300781 50.335938 53.617188 49.03125 55.234375 49.03125 C 55.542969 49.03125 55.835938 49.0625 56.09375 49.160156 L 58.867188 46.085938 L 58.867188 30.691406 L 61.308594 27.988281 L 65.214844 23.621094 L 65.214844 19.972656 L 65.101562 19.84375 L 61.160156 15.460938 L 51.171875 15.460938 L 47.3125 19.761719 L 47.3125 33.007812 L 51.972656 38.1875 C 52.25 38.089844 52.542969 38.042969 52.835938 38.042969 C 54.464844 38.042969 55.769531 39.359375 55.769531 40.972656 C 55.769531 42.601562 54.464844 43.90625 52.835938 43.90625 C 51.226562 43.90625 49.902344 42.601562 49.902344 40.972656 C 49.902344 40.566406 50 40.175781 50.148438 39.820312 L 47.3125 36.660156 L 47.3125 70.523438 L 53.09375 76.957031 C 53.371094 76.859375 53.664062 76.824219 53.957031 76.824219 C 55.585938 76.824219 56.890625 78.128906 56.890625 79.742188 C 56.890625 81.367188 55.589844 82.671875 53.960938 82.671875 Z M 53.960938 82.671875 " fill-opacity="1" fill-rule="evenodd"/><g clip-path="url(#51fd46cc97)"><g transform="matrix(1, 0, 0, 1, 107, 60)"><g clip-path="url(#824407e052)"><g clip-path="url(#42502aca53)"><path fill="#278fcb" d="M 0.535156 0.710938 L 58.945312 0.710938 L 58.945312 41.792969 L 0.535156 41.792969 Z M 0.535156 0.710938 " fill-opacity="1" fill-rule="nonzero"/></g></g></g></g><g fill="#38b6ff" fill-opacity="1"><g transform="translate(172.232124, 100.529417)"><g><path d="M 10.765625 0 C 8.691406 0 7.070312 -0.585938 5.90625 -1.765625 C 4.738281 -2.953125 4.15625 -4.550781 4.15625 -6.5625 L 4.15625 -27.90625 L 10.984375 -27.90625 L 10.984375 -6.953125 C 10.984375 -6.609375 11.101562 -6.3125 11.34375 -6.0625 C 11.59375 -5.8125 11.894531 -5.6875 12.25 -5.6875 L 17.15625 -5.6875 L 17.15625 0 Z M 0.484375 -16.890625 L 0.484375 -22.4375 L 17.15625 -22.4375 L 17.15625 -16.890625 Z M 0.484375 -16.890625 "/></g></g></g><g fill="#38b6ff" fill-opacity="1"><g transform="translate(190.99855, 100.529417)"><g><path d="M 13.734375 0.53125 C 11.429688 0.53125 9.441406 0.0859375 7.765625 -0.796875 C 6.085938 -1.691406 4.796875 -2.90625 3.890625 -4.4375 C 2.984375 -5.96875 2.53125 -7.664062 2.53125 -9.53125 L 2.53125 -22.4375 L 9.3125 -22.4375 L 9.3125 -9.71875 C 9.3125 -8.925781 9.5 -8.203125 9.875 -7.546875 C 10.257812 -6.890625 10.78125 -6.363281 11.4375 -5.96875 C 12.09375 -5.570312 12.84375 -5.375 13.6875 -5.375 C 14.507812 -5.375 15.25 -5.570312 15.90625 -5.96875 C 16.5625 -6.363281 17.078125 -6.890625 17.453125 -7.546875 C 17.835938 -8.203125 18.03125 -8.925781 18.03125 -9.71875 L 18.03125 -22.4375 L 24.8125 -22.4375 L 24.8125 -9.53125 C 24.8125 -7.664062 24.375 -5.96875 23.5 -4.4375 C 22.625 -2.90625 21.359375 -1.691406 19.703125 -0.796875 C 18.054688 0.0859375 16.066406 0.53125 13.734375 0.53125 Z M 13.734375 0.53125 "/></g></g></g><g fill="#38b6ff" fill-opacity="1"><g transform="translate(218.338918, 100.529417)"><g><path d="M 5.953125 8.875 L 5.953125 3.0625 L 17.15625 3.0625 C 17.59375 3.0625 17.957031 2.921875 18.25 2.640625 C 18.539062 2.367188 18.6875 2.03125 18.6875 1.625 L 18.6875 -3.328125 L 18.546875 -3.328125 C 17.960938 -2.648438 17.34375 -2.078125 16.6875 -1.609375 C 16.03125 -1.148438 15.300781 -0.800781 14.5 -0.5625 C 13.695312 -0.332031 12.800781 -0.21875 11.8125 -0.21875 C 9.832031 -0.21875 8.0625 -0.691406 6.5 -1.640625 C 4.9375 -2.585938 3.707031 -3.90625 2.8125 -5.59375 C 1.925781 -7.289062 1.484375 -9.21875 1.484375 -11.375 C 1.484375 -13.5 1.941406 -15.4375 2.859375 -17.1875 C 3.785156 -18.9375 5.132812 -20.335938 6.90625 -21.390625 C 8.6875 -22.441406 10.863281 -22.96875 13.4375 -22.96875 C 15.882812 -22.96875 18.003906 -22.460938 19.796875 -21.453125 C 21.585938 -20.453125 22.976562 -19.039062 23.96875 -17.21875 C 24.96875 -15.394531 25.46875 -13.257812 25.46875 -10.8125 L 25.46875 2.3125 C 25.46875 4.332031 24.875 5.929688 23.6875 7.109375 C 22.507812 8.285156 20.882812 8.875 18.8125 8.875 Z M 13.46875 -5.90625 C 14.519531 -5.90625 15.425781 -6.144531 16.1875 -6.625 C 16.945312 -7.101562 17.53125 -7.75 17.9375 -8.5625 C 18.34375 -9.382812 18.546875 -10.289062 18.546875 -11.28125 C 18.546875 -12.332031 18.34375 -13.296875 17.9375 -14.171875 C 17.53125 -15.046875 16.945312 -15.738281 16.1875 -16.25 C 15.425781 -16.757812 14.519531 -17.015625 13.46875 -17.015625 C 12.445312 -17.015625 11.550781 -16.765625 10.78125 -16.265625 C 10.007812 -15.773438 9.421875 -15.109375 9.015625 -14.265625 C 8.609375 -13.421875 8.40625 -12.472656 8.40625 -11.421875 C 8.40625 -10.398438 8.609375 -9.472656 9.015625 -8.640625 C 9.421875 -7.804688 10.007812 -7.140625 10.78125 -6.640625 C 11.550781 -6.148438 12.445312 -5.90625 13.46875 -5.90625 Z M 13.46875 -5.90625 "/></g></g></g><g fill="#38b6ff" fill-opacity="1"><g transform="translate(246.16048, 100.529417)"><g><path d="M 11.546875 0.53125 C 9.566406 0.53125 7.816406 0.0195312 6.296875 -1 C 4.785156 -2.019531 3.601562 -3.398438 2.75 -5.140625 C 1.90625 -6.878906 1.484375 -8.84375 1.484375 -11.03125 C 1.484375 -13.300781 1.976562 -15.332031 2.96875 -17.125 C 3.96875 -18.914062 5.378906 -20.335938 7.203125 -21.390625 C 9.023438 -22.441406 11.175781 -22.96875 13.65625 -22.96875 C 16.15625 -22.96875 18.285156 -22.445312 20.046875 -21.40625 C 21.816406 -20.375 23.175781 -18.960938 24.125 -17.171875 C 25.070312 -15.378906 25.546875 -13.375 25.546875 -11.15625 L 25.546875 0 L 18.90625 0 L 18.90625 -3.59375 L 18.71875 -3.59375 C 18.3125 -2.800781 17.785156 -2.09375 17.140625 -1.46875 C 16.503906 -0.84375 15.726562 -0.351562 14.8125 0 C 13.894531 0.351562 12.804688 0.53125 11.546875 0.53125 Z M 13.5625 -5.34375 C 14.582031 -5.34375 15.476562 -5.597656 16.25 -6.109375 C 17.019531 -6.617188 17.609375 -7.320312 18.015625 -8.21875 C 18.429688 -9.125 18.640625 -10.132812 18.640625 -11.25 C 18.640625 -12.320312 18.429688 -13.296875 18.015625 -14.171875 C 17.609375 -15.046875 17.019531 -15.738281 16.25 -16.25 C 15.476562 -16.757812 14.582031 -17.015625 13.5625 -17.015625 C 12.507812 -17.015625 11.585938 -16.757812 10.796875 -16.25 C 10.015625 -15.738281 9.421875 -15.046875 9.015625 -14.171875 C 8.609375 -13.296875 8.40625 -12.320312 8.40625 -11.25 C 8.40625 -10.132812 8.609375 -9.125 9.015625 -8.21875 C 9.421875 -7.320312 10.015625 -6.617188 10.796875 -6.109375 C 11.585938 -5.597656 12.507812 -5.34375 13.5625 -5.34375 Z M 13.5625 -5.34375 "/></g></g></g><g fill="#38b6ff" fill-opacity="1"><g transform="translate(274.200762, 100.529417)"><g><path d="M 2.578125 0 L 2.578125 -5.375 L 13.390625 -5.375 C 13.679688 -5.375 13.941406 -5.441406 14.171875 -5.578125 C 14.410156 -5.710938 14.601562 -5.894531 14.75 -6.125 C 14.894531 -6.351562 14.96875 -6.601562 14.96875 -6.875 C 14.96875 -7.164062 14.894531 -7.425781 14.75 -7.65625 C 14.601562 -7.882812 14.410156 -8.066406 14.171875 -8.203125 C 13.941406 -8.335938 13.679688 -8.40625 13.390625 -8.40625 L 9.453125 -8.40625 C 7.992188 -8.40625 6.671875 -8.644531 5.484375 -9.125 C 4.304688 -9.601562 3.375 -10.359375 2.6875 -11.390625 C 2 -12.429688 1.65625 -13.78125 1.65625 -15.4375 C 1.65625 -16.726562 1.96875 -17.894531 2.59375 -18.9375 C 3.226562 -19.988281 4.09375 -20.832031 5.1875 -21.46875 C 6.28125 -22.113281 7.484375 -22.4375 8.796875 -22.4375 L 19.59375 -22.4375 L 19.59375 -17.015625 L 9.84375 -17.015625 C 9.4375 -17.015625 9.09375 -16.882812 8.8125 -16.625 C 8.539062 -16.363281 8.40625 -16.039062 8.40625 -15.65625 C 8.40625 -15.25 8.539062 -14.90625 8.8125 -14.625 C 9.09375 -14.351562 9.4375 -14.21875 9.84375 -14.21875 L 13.6875 -14.21875 C 15.320312 -14.21875 16.726562 -13.976562 17.90625 -13.5 C 19.09375 -13.019531 20.015625 -12.253906 20.671875 -11.203125 C 21.328125 -10.148438 21.65625 -8.789062 21.65625 -7.125 C 21.65625 -5.8125 21.328125 -4.613281 20.671875 -3.53125 C 20.015625 -2.457031 19.140625 -1.597656 18.046875 -0.953125 C 16.953125 -0.316406 15.71875 0 14.34375 0 Z M 2.578125 0 "/></g></g></g><g fill="#38b6ff" fill-opacity="1"><g transform="translate(297.385406, 100.529417)"><g><path d="M 5.859375 0.53125 C 4.691406 0.53125 3.691406 0.113281 2.859375 -0.71875 C 2.035156 -1.550781 1.625 -2.535156 1.625 -3.671875 C 1.625 -4.835938 2.035156 -5.835938 2.859375 -6.671875 C 3.691406 -7.503906 4.691406 -7.921875 5.859375 -7.921875 C 6.992188 -7.921875 7.976562 -7.503906 8.8125 -6.671875 C 9.644531 -5.835938 10.0625 -4.835938 10.0625 -3.671875 C 10.0625 -2.910156 9.867188 -2.207031 9.484375 -1.5625 C 9.109375 -0.925781 8.609375 -0.414062 7.984375 -0.03125 C 7.359375 0.34375 6.648438 0.53125 5.859375 0.53125 Z M 5.859375 0.53125 "/></g></g></g><g fill="#38b6ff" fill-opacity="1"><g transform="translate(309.065217, 100.529417)"><g><path d="M 2.53125 0 L 2.53125 -22.4375 L 9.359375 -22.4375 L 9.359375 0 Z M 5.953125 -24.984375 C 4.867188 -24.984375 3.929688 -25.375 3.140625 -26.15625 C 2.359375 -26.945312 1.96875 -27.878906 1.96875 -28.953125 C 1.96875 -30.035156 2.359375 -30.976562 3.140625 -31.78125 C 3.929688 -32.582031 4.867188 -32.984375 5.953125 -32.984375 C 7.023438 -32.984375 7.953125 -32.582031 8.734375 -31.78125 C 9.523438 -30.976562 9.921875 -30.035156 9.921875 -28.953125 C 9.921875 -27.878906 9.523438 -26.945312 8.734375 -26.15625 C 7.953125 -25.375 7.023438 -24.984375 5.953125 -24.984375 Z M 5.953125 -24.984375 "/></g></g></g><g fill="#38b6ff" fill-opacity="1"><g transform="translate(320.876267, 100.529417)"><g><path d="M 13.515625 0.53125 C 11.648438 0.53125 9.96875 0.238281 8.46875 -0.34375 C 6.96875 -0.925781 5.707031 -1.765625 4.6875 -2.859375 C 3.664062 -3.953125 2.875 -5.242188 2.3125 -6.734375 C 1.757812 -8.222656 1.484375 -9.84375 1.484375 -11.59375 C 1.484375 -13.863281 1.941406 -15.84375 2.859375 -17.53125 C 3.785156 -19.226562 5.054688 -20.554688 6.671875 -21.515625 C 8.285156 -22.484375 10.144531 -22.96875 12.25 -22.96875 C 13.15625 -22.96875 14.007812 -22.847656 14.8125 -22.609375 C 15.613281 -22.378906 16.34375 -22.035156 17 -21.578125 C 17.65625 -21.128906 18.203125 -20.601562 18.640625 -20 L 18.765625 -20 L 18.765625 -31.9375 L 25.546875 -31.9375 L 25.546875 -11.640625 C 25.546875 -9.191406 25.050781 -7.046875 24.0625 -5.203125 C 23.070312 -3.367188 21.675781 -1.953125 19.875 -0.953125 C 18.082031 0.0351562 15.960938 0.53125 13.515625 0.53125 Z M 13.515625 -5.34375 C 14.566406 -5.34375 15.476562 -5.597656 16.25 -6.109375 C 17.019531 -6.617188 17.609375 -7.316406 18.015625 -8.203125 C 18.429688 -9.085938 18.640625 -10.085938 18.640625 -11.203125 C 18.640625 -12.304688 18.429688 -13.296875 18.015625 -14.171875 C 17.609375 -15.046875 17.019531 -15.738281 16.25 -16.25 C 15.476562 -16.757812 14.566406 -17.015625 13.515625 -17.015625 C 12.492188 -17.015625 11.585938 -16.757812 10.796875 -16.25 C 10.015625 -15.738281 9.421875 -15.046875 9.015625 -14.171875 C 8.609375 -13.296875 8.40625 -12.304688 8.40625 -11.203125 C 8.40625 -10.085938 8.609375 -9.085938 9.015625 -8.203125 C 9.421875 -7.316406 10.015625 -6.617188 10.796875 -6.109375 C 11.585938 -5.597656 12.492188 -5.34375 13.515625 -5.34375 Z M 13.515625 -5.34375 "/></g></g></g><g clip-path="url(#502f70d9b1)"><g transform="matrix(1, 0, 0, 1, 107, -0.000000000000003553)"><g clip-path="url(#3b126c0a49)"><g clip-path="url(#f0d595265b)"><g fill="#d9d9d9" fill-opacity="1"><g transform="translate(0.534175, 49.354993)"><g><path d="M 0 0 L 9.921875 -27.046875 C 10.410156 -28.378906 11.222656 -29.390625 12.359375 -30.078125 C 13.492188 -30.765625 14.773438 -31.109375 16.203125 -31.109375 C 17.628906 -31.109375 18.910156 -30.78125 20.046875 -30.125 C 21.179688 -29.46875 22 -28.457031 22.5 -27.09375 L 32.453125 0 L 24.546875 0 L 22.625 -5.890625 L 9.65625 -5.890625 L 7.640625 0 Z M 11.53125 -11.96875 L 20.75 -11.96875 L 16.859375 -24.15625 C 16.804688 -24.332031 16.726562 -24.457031 16.625 -24.53125 C 16.519531 -24.601562 16.394531 -24.640625 16.25 -24.640625 C 16.101562 -24.640625 15.976562 -24.59375 15.875 -24.5 C 15.78125 -24.414062 15.71875 -24.300781 15.6875 -24.15625 Z M 11.53125 -11.96875 "/></g></g></g></g><g fill="#d9d9d9" fill-opacity="1"><g transform="translate(32.991012, 49.354993)"><g><path d="M 2.84375 0 L 2.84375 -6.109375 L 15.90625 -6.109375 C 16.488281 -6.109375 17.007812 -6.253906 17.46875 -6.546875 C 17.9375 -6.835938 18.304688 -7.21875 18.578125 -7.6875 C 18.859375 -8.15625 19 -8.664062 19 -9.21875 C 19 -9.800781 18.859375 -10.320312 18.578125 -10.78125 C 18.304688 -11.25 17.9375 -11.628906 17.46875 -11.921875 C 17.007812 -12.210938 16.488281 -12.359375 15.90625 -12.359375 L 11.1875 -12.359375 C 9.40625 -12.359375 7.785156 -12.707031 6.328125 -13.40625 C 4.878906 -14.101562 3.722656 -15.128906 2.859375 -16.484375 C 2.003906 -17.847656 1.578125 -19.472656 1.578125 -21.359375 C 1.578125 -23.222656 1.984375 -24.835938 2.796875 -26.203125 C 3.609375 -27.578125 4.710938 -28.648438 6.109375 -29.421875 C 7.515625 -30.191406 9.0625 -30.578125 10.75 -30.578125 L 24.25 -30.578125 L 24.25 -24.46875 L 11.578125 -24.46875 C 11.054688 -24.46875 10.578125 -24.332031 10.140625 -24.0625 C 9.703125 -23.800781 9.363281 -23.453125 9.125 -23.015625 C 8.894531 -22.585938 8.78125 -22.109375 8.78125 -21.578125 C 8.78125 -21.054688 8.894531 -20.582031 9.125 -20.15625 C 9.363281 -19.738281 9.703125 -19.394531 10.140625 -19.125 C 10.578125 -18.863281 11.054688 -18.734375 11.578125 -18.734375 L 16.515625 -18.734375 C 18.460938 -18.734375 20.15625 -18.363281 21.59375 -17.625 C 23.039062 -16.882812 24.164062 -15.847656 24.96875 -14.515625 C 25.769531 -13.191406 26.171875 -11.644531 26.171875 -9.875 C 26.171875 -7.78125 25.753906 -5.992188 24.921875 -4.515625 C 24.085938 -3.046875 22.972656 -1.925781 21.578125 -1.15625 C 20.179688 -0.382812 18.640625 0 16.953125 0 Z M 2.84375 0 "/></g></g></g><g fill="#d9d9d9" fill-opacity="1"><g transform="translate(60.555302, 49.354993)"><g><path d="M 1.96875 0 L 1.96875 -6.109375 L 7.25 -6.109375 L 7.25 -24.46875 L 1.96875 -24.46875 L 1.96875 -30.578125 L 19.828125 -30.578125 L 19.828125 -24.46875 L 14.546875 -24.46875 L 14.546875 -6.109375 L 19.828125 -6.109375 L 19.828125 0 Z M 1.96875 0 "/></g></g></g><g fill="#d9d9d9" fill-opacity="1"><g transform="translate(82.353354, 49.354993)"><g><path d="M 2.84375 0 L 2.84375 -6.109375 L 15.90625 -6.109375 C 16.488281 -6.109375 17.007812 -6.253906 17.46875 -6.546875 C 17.9375 -6.835938 18.304688 -7.21875 18.578125 -7.6875 C 18.859375 -8.15625 19 -8.664062 19 -9.21875 C 19 -9.800781 18.859375 -10.320312 18.578125 -10.78125 C 18.304688 -11.25 17.9375 -11.628906 17.46875 -11.921875 C 17.007812 -12.210938 16.488281 -12.359375 15.90625 -12.359375 L 11.1875 -12.359375 C 9.40625 -12.359375 7.785156 -12.707031 6.328125 -13.40625 C 4.878906 -14.101562 3.722656 -15.128906 2.859375 -16.484375 C 2.003906 -17.847656 1.578125 -19.472656 1.578125 -21.359375 C 1.578125 -23.222656 1.984375 -24.835938 2.796875 -26.203125 C 3.609375 -27.578125 4.710938 -28.648438 6.109375 -29.421875 C 7.515625 -30.191406 9.0625 -30.578125 10.75 -30.578125 L 24.25 -30.578125 L 24.25 -24.46875 L 11.578125 -24.46875 C 11.054688 -24.46875 10.578125 -24.332031 10.140625 -24.0625 C 9.703125 -23.800781 9.363281 -23.453125 9.125 -23.015625 C 8.894531 -22.585938 8.78125 -22.109375 8.78125 -21.578125 C 8.78125 -21.054688 8.894531 -20.582031 9.125 -20.15625 C 9.363281 -19.738281 9.703125 -19.394531 10.140625 -19.125 C 10.578125 -18.863281 11.054688 -18.734375 11.578125 -18.734375 L 16.515625 -18.734375 C 18.460938 -18.734375 20.15625 -18.363281 21.59375 -17.625 C 23.039062 -16.882812 24.164062 -15.847656 24.96875 -14.515625 C 25.769531 -13.191406 26.171875 -11.644531 26.171875 -9.875 C 26.171875 -7.78125 25.753906 -5.992188 24.921875 -4.515625 C 24.085938 -3.046875 22.972656 -1.925781 21.578125 -1.15625 C 20.179688 -0.382812 18.640625 0 16.953125 0 Z M 2.84375 0 "/></g></g></g><g fill="#d9d9d9" fill-opacity="1"><g transform="translate(109.917645, 49.354993)"><g><path d="M 18.390625 0 C 16.523438 0 14.882812 -0.410156 13.46875 -1.234375 C 12.0625 -2.066406 10.957031 -3.179688 10.15625 -4.578125 C 9.351562 -5.984375 8.953125 -7.546875 8.953125 -9.265625 L 8.953125 -24.46875 L 0.65625 -24.46875 L 0.65625 -30.578125 L 24.546875 -30.578125 L 24.546875 -24.46875 L 16.296875 -24.46875 L 16.296875 -8.609375 C 16.296875 -7.941406 16.523438 -7.359375 16.984375 -6.859375 C 17.453125 -6.359375 18.035156 -6.109375 18.734375 -6.109375 L 21.140625 -6.109375 L 21.140625 0 Z M 18.390625 0 "/></g></g></g><g fill="#d9d9d9" fill-opacity="1"><g transform="translate(135.123018, 49.354993)"><g><path d="M 10.828125 0 C 9.109375 0 7.550781 -0.398438 6.15625 -1.203125 C 4.757812 -2.003906 3.644531 -3.082031 2.8125 -4.4375 C 1.988281 -5.789062 1.578125 -7.328125 1.578125 -9.046875 C 1.578125 -10.328125 1.859375 -11.523438 2.421875 -12.640625 C 2.992188 -13.765625 3.757812 -14.734375 4.71875 -15.546875 C 3.78125 -16.335938 3.039062 -17.269531 2.5 -18.34375 C 1.96875 -19.425781 1.703125 -20.5625 1.703125 -21.75 C 1.703125 -23.445312 2.109375 -24.957031 2.921875 -26.28125 C 3.742188 -27.601562 4.835938 -28.648438 6.203125 -29.421875 C 7.566406 -30.191406 9.082031 -30.578125 10.75 -30.578125 L 23.640625 -30.578125 L 23.640625 -24.46875 L 11.890625 -24.46875 C 11.328125 -24.46875 10.8125 -24.332031 10.34375 -24.0625 C 9.882812 -23.800781 9.515625 -23.453125 9.234375 -23.015625 C 8.960938 -22.585938 8.828125 -22.082031 8.828125 -21.5 C 8.828125 -20.945312 8.960938 -20.441406 9.234375 -19.984375 C 9.515625 -19.535156 9.882812 -19.1875 10.34375 -18.9375 C 10.8125 -18.6875 11.328125 -18.5625 11.890625 -18.5625 L 22.15625 -18.5625 L 22.15625 -12.453125 L 12.09375 -12.453125 C 11.488281 -12.453125 10.9375 -12.304688 10.4375 -12.015625 C 9.945312 -11.722656 9.554688 -11.34375 9.265625 -10.875 C 8.972656 -10.40625 8.828125 -9.867188 8.828125 -9.265625 C 8.828125 -8.679688 8.972656 -8.148438 9.265625 -7.671875 C 9.554688 -7.191406 9.945312 -6.816406 10.4375 -6.546875 C 10.9375 -6.285156 11.488281 -6.15625 12.09375 -6.15625 L 23.640625 -6.15625 L 23.640625 0 Z M 10.828125 0 "/></g></g></g><g fill="#d9d9d9" fill-opacity="1"><g transform="translate(160.459437, 49.354993)"><g><path d="M 24.203125 0.53125 C 22.367188 0.53125 20.722656 0.128906 19.265625 -0.671875 C 17.804688 -1.472656 16.65625 -2.585938 15.8125 -4.015625 C 14.96875 -5.441406 14.546875 -7.0625 14.546875 -8.875 L 14.546875 -22.234375 C 14.546875 -22.703125 14.425781 -23.125 14.1875 -23.5 C 13.957031 -23.882812 13.65625 -24.191406 13.28125 -24.421875 C 12.90625 -24.648438 12.484375 -24.765625 12.015625 -24.765625 C 11.546875 -24.765625 11.117188 -24.648438 10.734375 -24.421875 C 10.359375 -24.191406 10.0625 -23.882812 9.84375 -23.5 C 9.632812 -23.125 9.53125 -22.703125 9.53125 -22.234375 L 9.53125 0 L 2.359375 0 L 2.359375 -21.71875 C 2.359375 -23.550781 2.769531 -25.164062 3.59375 -26.5625 C 4.425781 -27.957031 5.578125 -29.0625 7.046875 -29.875 C 8.523438 -30.695312 10.179688 -31.109375 12.015625 -31.109375 C 13.878906 -31.109375 15.535156 -30.695312 16.984375 -29.875 C 18.441406 -29.0625 19.59375 -27.957031 20.4375 -26.5625 C 21.289062 -25.164062 21.71875 -23.550781 21.71875 -21.71875 L 21.71875 -8.34375 C 21.71875 -7.875 21.832031 -7.441406 22.0625 -7.046875 C 22.289062 -6.660156 22.585938 -6.359375 22.953125 -6.140625 C 23.316406 -5.921875 23.71875 -5.8125 24.15625 -5.8125 C 24.625 -5.8125 25.050781 -5.921875 25.4375 -6.140625 C 25.832031 -6.359375 26.144531 -6.660156 26.375 -7.046875 C 26.613281 -7.441406 26.734375 -7.875 26.734375 -8.34375 L 26.734375 -30.578125 L 33.859375 -30.578125 L 33.859375 -8.875 C 33.859375 -7.0625 33.4375 -5.441406 32.59375 -4.015625 C 31.75 -2.585938 30.597656 -1.472656 29.140625 -0.671875 C 27.679688 0.128906 26.035156 0.53125 24.203125 0.53125 Z M 24.203125 0.53125 "/></g></g></g><g fill="#d9d9d9" fill-opacity="1"><g transform="translate(196.716736, 49.354993)"><g><path d="M 2.84375 0 L 2.84375 -6.109375 L 15.90625 -6.109375 C 16.488281 -6.109375 17.007812 -6.253906 17.46875 -6.546875 C 17.9375 -6.835938 18.304688 -7.21875 18.578125 -7.6875 C 18.859375 -8.15625 19 -8.664062 19 -9.21875 C 19 -9.800781 18.859375 -10.320312 18.578125 -10.78125 C 18.304688 -11.25 17.9375 -11.628906 17.46875 -11.921875 C 17.007812 -12.210938 16.488281 -12.359375 15.90625 -12.359375 L 11.1875 -12.359375 C 9.40625 -12.359375 7.785156 -12.707031 6.328125 -13.40625 C 4.878906 -14.101562 3.722656 -15.128906 2.859375 -16.484375 C 2.003906 -17.847656 1.578125 -19.472656 1.578125 -21.359375 C 1.578125 -23.222656 1.984375 -24.835938 2.796875 -26.203125 C 3.609375 -27.578125 4.710938 -28.648438 6.109375 -29.421875 C 7.515625 -30.191406 9.0625 -30.578125 10.75 -30.578125 L 24.25 -30.578125 L 24.25 -24.46875 L 11.578125 -24.46875 C 11.054688 -24.46875 10.578125 -24.332031 10.140625 -24.0625 C 9.703125 -23.800781 9.363281 -23.453125 9.125 -23.015625 C 8.894531 -22.585938 8.78125 -22.109375 8.78125 -21.578125 C 8.78125 -21.054688 8.894531 -20.582031 9.125 -20.15625 C 9.363281 -19.738281 9.703125 -19.394531 10.140625 -19.125 C 10.578125 -18.863281 11.054688 -18.734375 11.578125 -18.734375 L 16.515625 -18.734375 C 18.460938 -18.734375 20.15625 -18.363281 21.59375 -17.625 C 23.039062 -16.882812 24.164062 -15.847656 24.96875 -14.515625 C 25.769531 -13.191406 26.171875 -11.644531 26.171875 -9.875 C 26.171875 -7.78125 25.753906 -5.992188 24.921875 -4.515625 C 24.085938 -3.046875 22.972656 -1.925781 21.578125 -1.15625 C 20.179688 -0.382812 18.640625 0 16.953125 0 Z M 2.84375 0 "/></g></g></g><g fill="#d9d9d9" fill-opacity="1"><g transform="translate(224.281026, 49.354993)"><g><path d="M 1.96875 0 L 1.96875 -6.109375 L 7.25 -6.109375 L 7.25 -24.46875 L 1.96875 -24.46875 L 1.96875 -30.578125 L 19.828125 -30.578125 L 19.828125 -24.46875 L 14.546875 -24.46875 L 14.546875 -6.109375 L 19.828125 -6.109375 L 19.828125 0 Z M 1.96875 0 "/></g></g></g></g></g></g><g clip-path="url(#62894d1c3d)"><g transform="matrix(1, 0, 0, 1, 107, 110)"><g clip-path="url(#fde503cd34)"><g clip-path="url(#bf32a986d7)"><g fill="#ffffff" fill-opacity="1"><g transform="translate(0.534175, 23.498258)"><g><path d="M 12.109375 0 L 10.140625 -5.03125 L 3.8125 -5.03125 L 1.859375 0 L 0 0 L 6.25 -15.875 L 7.796875 -15.875 L 14.015625 0 Z M 9.5625 -6.6875 L 7.734375 -11.578125 C 7.492188 -12.203125 7.25 -12.960938 7 -13.859375 C 6.832031 -13.171875 6.601562 -12.410156 6.3125 -11.578125 L 4.453125 -6.6875 Z M 9.5625 -6.6875 "/></g></g></g></g><g fill="#ffffff" fill-opacity="1"><g transform="translate(14.544675, 23.498258)"><g><path d="M 17 0 L 17 -7.703125 C 17 -8.648438 16.796875 -9.359375 16.390625 -9.828125 C 15.992188 -10.304688 15.367188 -10.546875 14.515625 -10.546875 C 13.398438 -10.546875 12.578125 -10.222656 12.046875 -9.578125 C 11.515625 -8.929688 11.25 -7.941406 11.25 -6.609375 L 11.25 0 L 9.453125 0 L 9.453125 -7.703125 C 9.453125 -8.648438 9.25 -9.359375 8.84375 -9.828125 C 8.4375 -10.304688 7.804688 -10.546875 6.953125 -10.546875 C 5.828125 -10.546875 5.003906 -10.207031 4.484375 -9.53125 C 3.960938 -8.851562 3.703125 -7.75 3.703125 -6.21875 L 3.703125 0 L 1.90625 0 L 1.90625 -11.84375 L 3.359375 -11.84375 L 3.65625 -10.234375 L 3.734375 -10.234375 C 4.078125 -10.804688 4.554688 -11.253906 5.171875 -11.578125 C 5.785156 -11.898438 6.476562 -12.0625 7.25 -12.0625 C 9.09375 -12.0625 10.300781 -11.390625 10.875 -10.046875 L 10.96875 -10.046875 C 11.3125 -10.671875 11.816406 -11.160156 12.484375 -11.515625 C 13.160156 -11.878906 13.929688 -12.0625 14.796875 -12.0625 C 16.128906 -12.0625 17.128906 -11.71875 17.796875 -11.03125 C 18.460938 -10.34375 18.796875 -9.242188 18.796875 -7.734375 L 18.796875 0 Z M 17 0 "/></g></g></g><g fill="#ffffff" fill-opacity="1"><g transform="translate(35.13882, 23.498258)"><g><path d="M 9.1875 0 L 8.828125 -1.6875 L 8.75 -1.6875 C 8.15625 -0.945312 7.5625 -0.441406 6.96875 -0.171875 C 6.382812 0.0859375 5.65625 0.21875 4.78125 0.21875 C 3.601562 0.21875 2.679688 -0.0820312 2.015625 -0.6875 C 1.347656 -1.289062 1.015625 -2.15625 1.015625 -3.28125 C 1.015625 -5.664062 2.925781 -6.914062 6.75 -7.03125 L 8.765625 -7.109375 L 8.765625 -7.84375 C 8.765625 -8.769531 8.5625 -9.453125 8.15625 -9.890625 C 7.757812 -10.335938 7.125 -10.5625 6.25 -10.5625 C 5.257812 -10.5625 4.140625 -10.257812 2.890625 -9.65625 L 2.34375 -11.03125 C 2.925781 -11.34375 3.566406 -11.585938 4.265625 -11.765625 C 4.960938 -11.953125 5.660156 -12.046875 6.359375 -12.046875 C 7.765625 -12.046875 8.804688 -11.726562 9.484375 -11.09375 C 10.171875 -10.46875 10.515625 -9.46875 10.515625 -8.09375 L 10.515625 0 Z M 5.140625 -1.265625 C 6.253906 -1.265625 7.128906 -1.570312 7.765625 -2.1875 C 8.398438 -2.800781 8.71875 -3.65625 8.71875 -4.75 L 8.71875 -5.828125 L 6.9375 -5.75 C 5.507812 -5.695312 4.476562 -5.472656 3.84375 -5.078125 C 3.207031 -4.691406 2.890625 -4.082031 2.890625 -3.25 C 2.890625 -2.601562 3.085938 -2.109375 3.484375 -1.765625 C 3.878906 -1.429688 4.429688 -1.265625 5.140625 -1.265625 Z M 5.140625 -1.265625 "/></g></g></g><g fill="#ffffff" fill-opacity="1"><g transform="translate(47.452068, 23.498258)"><g><path d="M 10.015625 0 L 10.015625 -7.671875 C 10.015625 -8.628906 9.789062 -9.347656 9.34375 -9.828125 C 8.90625 -10.304688 8.21875 -10.546875 7.28125 -10.546875 C 6.039062 -10.546875 5.132812 -10.207031 4.5625 -9.53125 C 3.988281 -8.863281 3.703125 -7.757812 3.703125 -6.21875 L 3.703125 0 L 1.90625 0 L 1.90625 -11.84375 L 3.359375 -11.84375 L 3.65625 -10.234375 L 3.734375 -10.234375 C 4.109375 -10.816406 4.625 -11.265625 5.28125 -11.578125 C 5.945312 -11.898438 6.6875 -12.0625 7.5 -12.0625 C 8.925781 -12.0625 10 -11.71875 10.71875 -11.03125 C 11.445312 -10.34375 11.8125 -9.242188 11.8125 -7.734375 L 11.8125 0 Z M 10.015625 0 "/></g></g></g><g fill="#ffffff" fill-opacity="1"><g transform="translate(61.040964, 23.498258)"><g><path d="M 9.1875 0 L 8.828125 -1.6875 L 8.75 -1.6875 C 8.15625 -0.945312 7.5625 -0.441406 6.96875 -0.171875 C 6.382812 0.0859375 5.65625 0.21875 4.78125 0.21875 C 3.601562 0.21875 2.679688 -0.0820312 2.015625 -0.6875 C 1.347656 -1.289062 1.015625 -2.15625 1.015625 -3.28125 C 1.015625 -5.664062 2.925781 -6.914062 6.75 -7.03125 L 8.765625 -7.109375 L 8.765625 -7.84375 C 8.765625 -8.769531 8.5625 -9.453125 8.15625 -9.890625 C 7.757812 -10.335938 7.125 -10.5625 6.25 -10.5625 C 5.257812 -10.5625 4.140625 -10.257812 2.890625 -9.65625 L 2.34375 -11.03125 C 2.925781 -11.34375 3.566406 -11.585938 4.265625 -11.765625 C 4.960938 -11.953125 5.660156 -12.046875 6.359375 -12.046875 C 7.765625 -12.046875 8.804688 -11.726562 9.484375 -11.09375 C 10.171875 -10.46875 10.515625 -9.46875 10.515625 -8.09375 L 10.515625 0 Z M 5.140625 -1.265625 C 6.253906 -1.265625 7.128906 -1.570312 7.765625 -2.1875 C 8.398438 -2.800781 8.71875 -3.65625 8.71875 -4.75 L 8.71875 -5.828125 L 6.9375 -5.75 C 5.507812 -5.695312 4.476562 -5.472656 3.84375 -5.078125 C 3.207031 -4.691406 2.890625 -4.082031 2.890625 -3.25 C 2.890625 -2.601562 3.085938 -2.109375 3.484375 -1.765625 C 3.878906 -1.429688 4.429688 -1.265625 5.140625 -1.265625 Z M 5.140625 -1.265625 "/></g></g></g><g fill="#ffffff" fill-opacity="1"><g transform="translate(73.354212, 23.498258)"><g><path d="M 10.015625 0 L 10.015625 -7.671875 C 10.015625 -8.628906 9.789062 -9.347656 9.34375 -9.828125 C 8.90625 -10.304688 8.21875 -10.546875 7.28125 -10.546875 C 6.039062 -10.546875 5.132812 -10.207031 4.5625 -9.53125 C 3.988281 -8.851562 3.703125 -7.738281 3.703125 -6.1875 L 3.703125 0 L 1.90625 0 L 1.90625 -16.828125 L 3.703125 -16.828125 L 3.703125 -11.734375 C 3.703125 -11.117188 3.671875 -10.609375 3.609375 -10.203125 L 3.71875 -10.203125 C 4.070312 -10.773438 4.570312 -11.222656 5.21875 -11.546875 C 5.875 -11.878906 6.617188 -12.046875 7.453125 -12.046875 C 8.898438 -12.046875 9.988281 -11.703125 10.71875 -11.015625 C 11.445312 -10.328125 11.8125 -9.234375 11.8125 -7.734375 L 11.8125 0 Z M 10.015625 0 "/></g></g></g><g fill="#ffffff" fill-opacity="1"><g transform="translate(86.943107, 23.498258)"><g/></g></g><g fill="#ffffff" fill-opacity="1"><g transform="translate(92.694331, 23.498258)"><g><path d="M 9.96875 -1.59375 L 9.875 -1.59375 C 9.039062 -0.382812 7.800781 0.21875 6.15625 0.21875 C 4.601562 0.21875 3.394531 -0.3125 2.53125 -1.375 C 1.675781 -2.4375 1.25 -3.941406 1.25 -5.890625 C 1.25 -7.847656 1.679688 -9.363281 2.546875 -10.4375 C 3.410156 -11.519531 4.613281 -12.0625 6.15625 -12.0625 C 7.757812 -12.0625 8.988281 -11.476562 9.84375 -10.3125 L 9.984375 -10.3125 L 9.90625 -11.171875 L 9.875 -12 L 9.875 -16.828125 L 11.671875 -16.828125 L 11.671875 0 L 10.203125 0 Z M 6.375 -1.28125 C 7.601562 -1.28125 8.492188 -1.613281 9.046875 -2.28125 C 9.597656 -2.945312 9.875 -4.023438 9.875 -5.515625 L 9.875 -5.890625 C 9.875 -7.566406 9.59375 -8.765625 9.03125 -9.484375 C 8.46875 -10.203125 7.578125 -10.5625 6.359375 -10.5625 C 5.304688 -10.5625 4.5 -10.148438 3.9375 -9.328125 C 3.382812 -8.515625 3.109375 -7.363281 3.109375 -5.875 C 3.109375 -4.351562 3.382812 -3.207031 3.9375 -2.4375 C 4.488281 -1.664062 5.300781 -1.28125 6.375 -1.28125 Z M 6.375 -1.28125 "/></g></g></g><g fill="#ffffff" fill-opacity="1"><g transform="translate(106.261605, 23.498258)"><g><path d="M 9.1875 0 L 8.828125 -1.6875 L 8.75 -1.6875 C 8.15625 -0.945312 7.5625 -0.441406 6.96875 -0.171875 C 6.382812 0.0859375 5.65625 0.21875 4.78125 0.21875 C 3.601562 0.21875 2.679688 -0.0820312 2.015625 -0.6875 C 1.347656 -1.289062 1.015625 -2.15625 1.015625 -3.28125 C 1.015625 -5.664062 2.925781 -6.914062 6.75 -7.03125 L 8.765625 -7.109375 L 8.765625 -7.84375 C 8.765625 -8.769531 8.5625 -9.453125 8.15625 -9.890625 C 7.757812 -10.335938 7.125 -10.5625 6.25 -10.5625 C 5.257812 -10.5625 4.140625 -10.257812 2.890625 -9.65625 L 2.34375 -11.03125 C 2.925781 -11.34375 3.566406 -11.585938 4.265625 -11.765625 C 4.960938 -11.953125 5.660156 -12.046875 6.359375 -12.046875 C 7.765625 -12.046875 8.804688 -11.726562 9.484375 -11.09375 C 10.171875 -10.46875 10.515625 -9.46875 10.515625 -8.09375 L 10.515625 0 Z M 5.140625 -1.265625 C 6.253906 -1.265625 7.128906 -1.570312 7.765625 -2.1875 C 8.398438 -2.800781 8.71875 -3.65625 8.71875 -4.75 L 8.71875 -5.828125 L 6.9375 -5.75 C 5.507812 -5.695312 4.476562 -5.472656 3.84375 -5.078125 C 3.207031 -4.691406 2.890625 -4.082031 2.890625 -3.25 C 2.890625 -2.601562 3.085938 -2.109375 3.484375 -1.765625 C 3.878906 -1.429688 4.429688 -1.265625 5.140625 -1.265625 Z M 5.140625 -1.265625 "/></g></g></g><g fill="#ffffff" fill-opacity="1"><g transform="translate(118.574853, 23.498258)"><g><path d="M 10.015625 0 L 10.015625 -7.671875 C 10.015625 -8.628906 9.789062 -9.347656 9.34375 -9.828125 C 8.90625 -10.304688 8.21875 -10.546875 7.28125 -10.546875 C 6.039062 -10.546875 5.132812 -10.207031 4.5625 -9.53125 C 3.988281 -8.863281 3.703125 -7.757812 3.703125 -6.21875 L 3.703125 0 L 1.90625 0 L 1.90625 -11.84375 L 3.359375 -11.84375 L 3.65625 -10.234375 L 3.734375 -10.234375 C 4.109375 -10.816406 4.625 -11.265625 5.28125 -11.578125 C 5.945312 -11.898438 6.6875 -12.0625 7.5 -12.0625 C 8.925781 -12.0625 10 -11.71875 10.71875 -11.03125 C 11.445312 -10.34375 11.8125 -9.242188 11.8125 -7.734375 L 11.8125 0 Z M 10.015625 0 "/></g></g></g><g fill="#ffffff" fill-opacity="1"><g transform="translate(132.163748, 23.498258)"><g/></g></g><g fill="#ffffff" fill-opacity="1"><g transform="translate(137.914972, 23.498258)"><g><path d="M 7.03125 0 L 5.203125 0 L 5.203125 -14.171875 L 0.1875 -14.171875 L 0.1875 -15.8125 L 12.046875 -15.8125 L 12.046875 -14.171875 L 7.03125 -14.171875 Z M 7.03125 0 "/></g></g></g><g fill="#ffffff" fill-opacity="1"><g transform="translate(150.163357, 23.498258)"><g><path d="M 6.90625 0.21875 C 5.15625 0.21875 3.773438 -0.3125 2.765625 -1.375 C 1.753906 -2.445312 1.25 -3.929688 1.25 -5.828125 C 1.25 -7.734375 1.71875 -9.25 2.65625 -10.375 C 3.59375 -11.5 4.851562 -12.0625 6.4375 -12.0625 C 7.925781 -12.0625 9.101562 -11.570312 9.96875 -10.59375 C 10.832031 -9.625 11.265625 -8.335938 11.265625 -6.734375 L 11.265625 -5.59375 L 3.109375 -5.59375 C 3.140625 -4.207031 3.488281 -3.148438 4.15625 -2.421875 C 4.820312 -1.703125 5.757812 -1.34375 6.96875 -1.34375 C 8.25 -1.34375 9.507812 -1.613281 10.75 -2.15625 L 10.75 -0.546875 C 10.125 -0.273438 9.523438 -0.0820312 8.953125 0.03125 C 8.390625 0.15625 7.707031 0.21875 6.90625 0.21875 Z M 6.421875 -10.5625 C 5.472656 -10.5625 4.710938 -10.25 4.140625 -9.625 C 3.578125 -9.007812 3.242188 -8.15625 3.140625 -7.0625 L 9.34375 -7.0625 C 9.34375 -8.1875 9.085938 -9.050781 8.578125 -9.65625 C 8.078125 -10.257812 7.359375 -10.5625 6.421875 -10.5625 Z M 6.421875 -10.5625 "/></g></g></g><g fill="#ffffff" fill-opacity="1"><g transform="translate(162.584711, 23.498258)"><g><path d="M 7.3125 -12.0625 C 7.832031 -12.0625 8.300781 -12.019531 8.71875 -11.9375 L 8.46875 -10.265625 C 7.976562 -10.378906 7.546875 -10.4375 7.171875 -10.4375 C 6.210938 -10.4375 5.394531 -10.046875 4.71875 -9.265625 C 4.039062 -8.484375 3.703125 -7.515625 3.703125 -6.359375 L 3.703125 0 L 1.90625 0 L 1.90625 -11.84375 L 3.390625 -11.84375 L 3.59375 -9.65625 L 3.671875 -9.65625 C 4.109375 -10.425781 4.632812 -11.019531 5.25 -11.4375 C 5.875 -11.851562 6.5625 -12.0625 7.3125 -12.0625 Z M 7.3125 -12.0625 "/></g></g></g><g fill="#ffffff" fill-opacity="1"><g transform="translate(171.622348, 23.498258)"><g><path d="M 7.421875 0.21875 C 6.648438 0.21875 5.941406 0.078125 5.296875 -0.203125 C 4.660156 -0.492188 4.128906 -0.9375 3.703125 -1.53125 L 3.5625 -1.53125 C 3.65625 -0.832031 3.703125 -0.175781 3.703125 0.4375 L 3.703125 5.3125 L 1.90625 5.3125 L 1.90625 -11.84375 L 3.359375 -11.84375 L 3.609375 -10.234375 L 3.703125 -10.234375 C 4.160156 -10.878906 4.695312 -11.34375 5.3125 -11.625 C 5.925781 -11.914062 6.628906 -12.0625 7.421875 -12.0625 C 8.984375 -12.0625 10.191406 -11.523438 11.046875 -10.453125 C 11.898438 -9.378906 12.328125 -7.875 12.328125 -5.9375 C 12.328125 -3.988281 11.894531 -2.472656 11.03125 -1.390625 C 10.164062 -0.316406 8.960938 0.21875 7.421875 0.21875 Z M 7.15625 -10.546875 C 5.945312 -10.546875 5.070312 -10.207031 4.53125 -9.53125 C 3.988281 -8.863281 3.710938 -7.796875 3.703125 -6.328125 L 3.703125 -5.9375 C 3.703125 -4.269531 3.976562 -3.078125 4.53125 -2.359375 C 5.082031 -1.640625 5.972656 -1.28125 7.203125 -1.28125 C 8.222656 -1.28125 9.019531 -1.691406 9.59375 -2.515625 C 10.175781 -3.347656 10.46875 -4.492188 10.46875 -5.953125 C 10.46875 -7.429688 10.175781 -8.566406 9.59375 -9.359375 C 9.019531 -10.148438 8.207031 -10.546875 7.15625 -10.546875 Z M 7.15625 -10.546875 "/></g></g></g><g fill="#ffffff" fill-opacity="1"><g transform="translate(185.189622, 23.498258)"><g><path d="M 6.90625 0.21875 C 5.15625 0.21875 3.773438 -0.3125 2.765625 -1.375 C 1.753906 -2.445312 1.25 -3.929688 1.25 -5.828125 C 1.25 -7.734375 1.71875 -9.25 2.65625 -10.375 C 3.59375 -11.5 4.851562 -12.0625 6.4375 -12.0625 C 7.925781 -12.0625 9.101562 -11.570312 9.96875 -10.59375 C 10.832031 -9.625 11.265625 -8.335938 11.265625 -6.734375 L 11.265625 -5.59375 L 3.109375 -5.59375 C 3.140625 -4.207031 3.488281 -3.148438 4.15625 -2.421875 C 4.820312 -1.703125 5.757812 -1.34375 6.96875 -1.34375 C 8.25 -1.34375 9.507812 -1.613281 10.75 -2.15625 L 10.75 -0.546875 C 10.125 -0.273438 9.523438 -0.0820312 8.953125 0.03125 C 8.390625 0.15625 7.707031 0.21875 6.90625 0.21875 Z M 6.421875 -10.5625 C 5.472656 -10.5625 4.710938 -10.25 4.140625 -9.625 C 3.578125 -9.007812 3.242188 -8.15625 3.140625 -7.0625 L 9.34375 -7.0625 C 9.34375 -8.1875 9.085938 -9.050781 8.578125 -9.65625 C 8.078125 -10.257812 7.359375 -10.5625 6.421875 -10.5625 Z M 6.421875 -10.5625 "/></g></g></g><g fill="#ffffff" fill-opacity="1"><g transform="translate(197.610976, 23.498258)"><g><path d="M 7.3125 -12.0625 C 7.832031 -12.0625 8.300781 -12.019531 8.71875 -11.9375 L 8.46875 -10.265625 C 7.976562 -10.378906 7.546875 -10.4375 7.171875 -10.4375 C 6.210938 -10.4375 5.394531 -10.046875 4.71875 -9.265625 C 4.039062 -8.484375 3.703125 -7.515625 3.703125 -6.359375 L 3.703125 0 L 1.90625 0 L 1.90625 -11.84375 L 3.390625 -11.84375 L 3.59375 -9.65625 L 3.671875 -9.65625 C 4.109375 -10.425781 4.632812 -11.019531 5.25 -11.4375 C 5.875 -11.851562 6.5625 -12.0625 7.3125 -12.0625 Z M 7.3125 -12.0625 "/></g></g></g><g fill="#ffffff" fill-opacity="1"><g transform="translate(206.648613, 23.498258)"><g><path d="M 6.640625 0.21875 C 4.921875 0.21875 3.59375 -0.304688 2.65625 -1.359375 C 1.71875 -2.421875 1.25 -3.914062 1.25 -5.84375 C 1.25 -7.832031 1.722656 -9.363281 2.671875 -10.4375 C 3.628906 -11.519531 4.988281 -12.0625 6.75 -12.0625 C 7.320312 -12.0625 7.890625 -12 8.453125 -11.875 C 9.023438 -11.757812 9.476562 -11.617188 9.8125 -11.453125 L 9.25 -9.921875 C 8.851562 -10.078125 8.421875 -10.207031 7.953125 -10.3125 C 7.484375 -10.414062 7.070312 -10.46875 6.71875 -10.46875 C 4.3125 -10.46875 3.109375 -8.9375 3.109375 -5.875 C 3.109375 -4.414062 3.398438 -3.296875 3.984375 -2.515625 C 4.566406 -1.734375 5.4375 -1.34375 6.59375 -1.34375 C 7.582031 -1.34375 8.59375 -1.554688 9.625 -1.984375 L 9.625 -0.40625 C 8.832031 0.0078125 7.835938 0.21875 6.640625 0.21875 Z M 6.640625 0.21875 "/></g></g></g><g fill="#ffffff" fill-opacity="1"><g transform="translate(217.188928, 23.498258)"><g><path d="M 9.1875 0 L 8.828125 -1.6875 L 8.75 -1.6875 C 8.15625 -0.945312 7.5625 -0.441406 6.96875 -0.171875 C 6.382812 0.0859375 5.65625 0.21875 4.78125 0.21875 C 3.601562 0.21875 2.679688 -0.0820312 2.015625 -0.6875 C 1.347656 -1.289062 1.015625 -2.15625 1.015625 -3.28125 C 1.015625 -5.664062 2.925781 -6.914062 6.75 -7.03125 L 8.765625 -7.109375 L 8.765625 -7.84375 C 8.765625 -8.769531 8.5625 -9.453125 8.15625 -9.890625 C 7.757812 -10.335938 7.125 -10.5625 6.25 -10.5625 C 5.257812 -10.5625 4.140625 -10.257812 2.890625 -9.65625 L 2.34375 -11.03125 C 2.925781 -11.34375 3.566406 -11.585938 4.265625 -11.765625 C 4.960938 -11.953125 5.660156 -12.046875 6.359375 -12.046875 C 7.765625 -12.046875 8.804688 -11.726562 9.484375 -11.09375 C 10.171875 -10.46875 10.515625 -9.46875 10.515625 -8.09375 L 10.515625 0 Z M 5.140625 -1.265625 C 6.253906 -1.265625 7.128906 -1.570312 7.765625 -2.1875 C 8.398438 -2.800781 8.71875 -3.65625 8.71875 -4.75 L 8.71875 -5.828125 L 6.9375 -5.75 C 5.507812 -5.695312 4.476562 -5.472656 3.84375 -5.078125 C 3.207031 -4.691406 2.890625 -4.082031 2.890625 -3.25 C 2.890625 -2.601562 3.085938 -2.109375 3.484375 -1.765625 C 3.878906 -1.429688 4.429688 -1.265625 5.140625 -1.265625 Z M 5.140625 -1.265625 "/></g></g></g><g fill="#ffffff" fill-opacity="1"><g transform="translate(229.502176, 23.498258)"><g><path d="M 0.015625 -11.84375 L 1.953125 -11.84375 L 4.546875 -5.09375 C 5.109375 -3.550781 5.457031 -2.4375 5.59375 -1.75 L 5.6875 -1.75 C 5.78125 -2.113281 5.972656 -2.738281 6.265625 -3.625 C 6.566406 -4.519531 7.546875 -7.257812 9.203125 -11.84375 L 11.140625 -11.84375 L 6.046875 1.640625 C 5.535156 2.972656 4.941406 3.914062 4.265625 4.46875 C 3.597656 5.03125 2.773438 5.3125 1.796875 5.3125 C 1.242188 5.3125 0.703125 5.253906 0.171875 5.140625 L 0.171875 3.703125 C 0.566406 3.785156 1.007812 3.828125 1.5 3.828125 C 2.726562 3.828125 3.609375 3.132812 4.140625 1.75 L 4.796875 0.0625 Z M 0.015625 -11.84375 "/></g></g></g><g fill="#ffffff" fill-opacity="1"><g transform="translate(240.658685, 23.498258)"><g><path d="M 9.1875 0 L 8.828125 -1.6875 L 8.75 -1.6875 C 8.15625 -0.945312 7.5625 -0.441406 6.96875 -0.171875 C 6.382812 0.0859375 5.65625 0.21875 4.78125 0.21875 C 3.601562 0.21875 2.679688 -0.0820312 2.015625 -0.6875 C 1.347656 -1.289062 1.015625 -2.15625 1.015625 -3.28125 C 1.015625 -5.664062 2.925781 -6.914062 6.75 -7.03125 L 8.765625 -7.109375 L 8.765625 -7.84375 C 8.765625 -8.769531 8.5625 -9.453125 8.15625 -9.890625 C 7.757812 -10.335938 7.125 -10.5625 6.25 -10.5625 C 5.257812 -10.5625 4.140625 -10.257812 2.890625 -9.65625 L 2.34375 -11.03125 C 2.925781 -11.34375 3.566406 -11.585938 4.265625 -11.765625 C 4.960938 -11.953125 5.660156 -12.046875 6.359375 -12.046875 C 7.765625 -12.046875 8.804688 -11.726562 9.484375 -11.09375 C 10.171875 -10.46875 10.515625 -9.46875 10.515625 -8.09375 L 10.515625 0 Z M 5.140625 -1.265625 C 6.253906 -1.265625 7.128906 -1.570312 7.765625 -2.1875 C 8.398438 -2.800781 8.71875 -3.65625 8.71875 -4.75 L 8.71875 -5.828125 L 6.9375 -5.75 C 5.507812 -5.695312 4.476562 -5.472656 3.84375 -5.078125 C 3.207031 -4.691406 2.890625 -4.082031 2.890625 -3.25 C 2.890625 -2.601562 3.085938 -2.109375 3.484375 -1.765625 C 3.878906 -1.429688 4.429688 -1.265625 5.140625 -1.265625 Z M 5.140625 -1.265625 "/></g></g></g></g></g></g></g></g></svg>